<svg xmlns="http://www.w3.org/2000/svg" viewBox="0 0 100 100" width="100" height="100">
  <!-- Background circle -->
  <circle cx="50" cy="50" r="48" fill="#4f46e5" />

  <!-- World map simplified outline in white -->
  <path d="M30,30 C35,25 45,28 50,30 C55,32 65,30 70,35 C75,40 70,50 65,55 C60,60 50,65 45,60 C40,55 35,50 30,45 C25,40 25,35 30,30 Z" fill="none" stroke="white" stroke-width="2" />

  <!-- Location pin -->
  <path d="M50,25 C58,25 65,32 65,40 C65,48 50,70 50,70 C50,70 35,48 35,40 C35,32 42,25 50,25 Z" fill="white" />
  <circle cx="50" cy="40" r="5" fill="#4f46e5" />

  <!-- Airplane silhouette suggesting travel -->
  <path d="M75,25 L85,20 L80,30 L70,35 L75,25 Z" fill="white" />
</svg>
